<?xml version="1.0" encoding="UTF-8" ?>
<!DOCTYPE svg PUBLIC "-//W3C//DTD SVG 1.1//EN" "http://www.w3.org/Graphics/SVG/1.1/DTD/svg11.dtd">
<svg width="1184pt" height="1270pt" viewBox="0 0 1184 1270" version="1.1" xmlns="http://www.w3.org/2000/svg">
<g id="#fdfefaff">
<path fill="#fdfefa" opacity="1.00" d=" M 544.67 44.82 C 556.54 41.08 568.67 37.90 581.09 36.61 C 600.05 34.87 619.24 35.54 638.01 38.78 C 645.64 40.06 652.91 42.80 660.33 44.92 C 679.92 51.25 696.95 63.15 714.58 73.42 C 729.09 81.46 742.95 90.62 757.56 98.46 C 780.20 111.83 802.89 125.12 825.58 138.42 C 840.78 146.69 855.19 156.31 870.28 164.78 C 885.56 173.39 900.30 182.90 915.67 191.34 C 930.79 200.16 946.00 208.83 960.85 218.11 C 975.81 227.26 991.39 235.37 1006.20 244.79 C 1038.00 263.74 1070.05 282.28 1102.07 300.88 C 1110.99 305.64 1119.37 311.38 1127.21 317.77 C 1136.19 324.61 1143.20 333.98 1147.56 344.38 C 1151.99 354.81 1151.08 366.40 1150.87 377.45 C 1150.51 375.15 1150.03 372.89 1149.57 370.62 C 1146.65 375.14 1145.33 380.38 1143.16 385.24 C 1139.04 395.28 1130.58 402.59 1122.49 409.44 C 1106.89 420.28 1089.59 428.35 1073.66 438.66 C 1064.90 444.40 1055.58 449.21 1046.67 454.68 C 1039.38 459.13 1031.66 462.80 1024.53 467.50 C 1014.97 473.82 1004.66 478.89 994.92 484.91 C 980.79 493.12 967.11 502.10 952.68 509.77 C 943.07 514.93 934.18 521.30 924.66 526.63 C 912.44 534.26 899.57 540.75 887.31 548.31 C 873.47 556.51 859.74 564.89 845.66 572.67 C 837.35 577.24 829.50 582.58 821.20 587.18 C 811.00 592.91 801.38 599.65 790.98 605.04 C 774.64 613.68 759.31 624.07 743.41 633.45 C 718.39 646.69 694.83 662.46 669.98 676.00 C 654.26 684.95 639.33 695.38 622.71 702.65 C 613.02 706.43 603.21 710.21 592.89 711.85 C 584.93 713.11 577.16 715.58 569.07 715.87 C 555.58 716.13 541.88 717.23 528.59 714.32 C 520.19 712.48 511.52 711.61 503.45 708.47 C 494.85 705.10 485.86 702.68 477.63 698.41 C 469.08 694.22 461.34 688.61 453.02 684.00 C 445.38 679.75 438.33 674.52 430.59 670.44 C 412.34 660.58 395.03 649.09 376.86 639.09 C 369.55 634.72 361.99 630.78 354.86 626.12 C 340.93 617.15 326.40 609.16 312.02 600.96 C 294.67 591.14 278.26 579.72 260.61 570.42 C 227.03 551.11 193.83 531.15 160.48 511.44 C 126.43 491.60 92.57 471.44 58.70 451.30 C 47.59 444.62 35.13 439.55 26.24 429.76 C 18.71 422.88 14.13 413.66 9.38 404.81 C 8.93 407.04 8.44 409.27 8.00 411.51 C 7.59 404.33 7.72 397.13 7.34 389.94 C 8.22 374.43 15.87 359.72 26.99 349.03 C 32.45 344.38 38.26 340.13 44.29 336.26 C 55.31 330.07 65.86 323.11 76.78 316.76 C 94.76 306.92 112.19 296.13 130.03 286.05 C 148.78 274.71 168.02 264.21 186.69 252.74 C 200.06 245.18 213.00 236.90 226.41 229.40 C 235.00 223.87 244.39 219.65 252.78 213.79 C 278.47 198.37 304.31 183.21 330.34 168.36 C 343.90 160.21 357.81 152.63 371.15 144.11 C 381.75 138.04 391.98 131.30 402.91 125.82 C 427.07 110.79 452.05 97.13 476.29 82.24 C 494.55 71.86 512.08 60.18 530.94 50.88 C 535.43 48.70 539.85 46.27 544.67 44.82 M 543.27 86.17 C 537.46 89.86 531.11 92.58 525.27 96.19 C 518.40 100.35 511.59 104.61 504.52 108.41 C 498.04 111.84 492.27 116.45 485.62 119.58 C 476.40 124.06 467.98 129.93 459.16 135.10 C 434.77 149.79 410.09 163.97 385.74 178.72 C 367.84 188.15 350.71 198.92 333.26 209.13 C 316.64 218.47 300.45 228.53 283.74 237.71 C 260.35 251.69 236.64 265.13 213.37 279.34 C 208.77 282.19 203.76 284.27 199.12 287.05 C 193.04 290.63 187.27 294.75 180.96 297.92 C 172.89 302.00 165.59 307.40 157.63 311.67 C 143.00 320.29 128.25 328.73 113.98 337.94 C 110.68 340.10 107.08 341.73 103.64 343.64 C 93.37 350.04 82.41 355.37 72.77 362.75 C 65.14 369.24 60.30 378.95 59.90 388.97 C 60.55 398.70 64.65 408.46 72.34 414.69 C 80.82 421.16 90.08 426.49 99.26 431.88 C 110.51 438.67 121.62 445.73 133.27 451.83 C 137.55 454.08 141.43 457.00 145.63 459.40 C 161.87 468.39 177.59 478.31 193.95 487.11 C 199.56 490.02 204.66 493.78 210.12 496.94 C 218.08 501.64 226.17 506.12 233.99 511.06 C 245.76 518.40 258.21 524.58 269.72 532.33 C 282.60 540.19 295.92 547.33 308.78 555.24 C 315.59 559.46 322.97 562.74 329.39 567.59 C 332.47 569.34 335.87 572.09 339.44 571.88 C 343.02 575.36 347.47 577.68 351.67 580.32 C 362.75 587.12 374.23 593.26 385.45 599.83 C 386.89 601.40 388.66 602.61 390.60 603.50 C 395.87 606.00 400.45 609.68 405.50 612.60 C 411.16 616.04 417.34 618.53 423.00 622.01 C 426.74 624.21 430.22 626.84 433.98 629.02 C 446.95 635.81 459.80 642.88 471.99 651.01 C 488.02 660.80 504.34 670.33 521.84 677.25 C 527.70 678.98 533.63 681.33 539.80 681.32 C 542.59 682.27 545.56 682.16 548.43 681.61 C 549.48 681.78 550.54 681.79 551.61 681.67 C 558.05 682.40 564.54 681.97 571.01 682.10 C 572.38 681.85 574.45 682.60 575.24 681.04 C 576.92 681.00 578.62 680.88 580.26 680.46 C 593.98 676.70 607.03 670.71 619.05 663.12 C 629.55 656.49 640.56 650.72 651.01 644.01 C 662.20 637.59 673.49 631.33 684.48 624.57 C 695.04 618.94 704.80 611.96 715.36 606.34 C 722.69 602.02 730.12 597.86 737.38 593.41 C 744.67 588.99 752.33 585.18 759.43 580.44 C 767.07 575.21 775.45 571.21 783.38 566.46 C 788.64 563.42 793.67 559.97 799.05 557.14 C 806.80 553.08 814.05 548.14 821.50 543.57 C 827.25 539.88 833.47 536.99 839.13 533.15 C 844.39 529.56 850.45 527.37 855.69 523.74 C 862.74 518.94 870.23 514.82 877.72 510.75 C 886.35 506.19 894.39 500.60 903.05 496.10 C 915.74 488.85 927.99 480.87 940.86 473.93 C 948.84 469.70 956.21 464.43 964.23 460.26 C 970.93 456.76 977.10 452.36 983.71 448.70 C 1003.40 437.41 1022.83 425.70 1042.65 414.66 C 1053.37 408.00 1064.39 401.84 1075.04 395.07 C 1081.76 391.03 1087.93 385.88 1092.23 379.24 C 1096.32 373.43 1098.67 365.91 1096.49 358.92 C 1097.94 357.87 1097.76 355.12 1096.26 354.21 C 1096.70 351.45 1095.25 348.89 1094.55 346.31 C 1091.40 341.93 1088.50 337.15 1083.89 334.13 C 1071.97 326.08 1059.40 319.05 1046.81 312.15 C 1033.90 304.39 1020.52 297.39 1007.96 289.06 C 997.51 282.31 986.33 276.80 975.70 270.35 C 958.93 260.81 942.43 250.81 925.68 241.24 C 918.34 237.42 911.62 232.57 904.41 228.52 C 889.09 219.48 873.31 211.23 858.27 201.71 C 840.61 190.62 821.91 181.31 804.36 170.03 C 789.33 161.30 774.59 152.01 759.40 143.51 C 745.33 135.19 731.41 126.62 717.04 118.82 C 699.53 108.77 682.47 97.95 664.71 88.34 C 656.84 84.14 649.54 78.83 641.08 75.84 C 631.18 72.19 620.83 69.00 610.23 68.62 C 604.83 67.50 599.21 67.52 593.82 68.62 C 575.89 70.14 558.52 76.70 543.27 86.17 Z" />
</g>
<g id="#d5e3deff">
<path fill="#d5e3de" opacity="1.00" d=" M 543.27 86.17 C 558.52 76.70 575.89 70.14 593.82 68.62 C 599.27 69.33 604.78 69.36 610.23 68.62 C 620.83 69.00 631.18 72.19 641.08 75.84 C 649.54 78.83 656.84 84.14 664.71 88.34 C 682.47 97.95 699.53 108.77 717.04 118.82 C 731.41 126.62 745.33 135.19 759.40 143.51 C 774.59 152.01 789.33 161.30 804.36 170.03 C 801.37 172.18 798.53 174.67 796.99 178.09 C 794.45 183.32 791.49 188.33 787.96 192.96 C 783.10 199.89 779.32 207.52 774.23 214.30 C 764.84 227.05 757.07 240.90 747.42 253.47 C 741.33 261.31 736.95 270.27 731.42 278.48 C 725.65 287.04 720.50 296.03 714.21 304.23 C 704.61 318.04 695.52 332.19 686.15 346.15 C 673.62 365.18 660.38 383.74 648.32 403.06 C 603.62 413.15 558.74 422.43 514.17 433.08 C 492.50 438.51 470.54 442.81 449.07 448.98 C 435.38 453.55 422.11 460.51 412.13 471.11 C 403.77 479.63 397.38 489.78 390.39 499.39 C 380.08 513.23 371.38 528.19 361.03 542.00 C 353.58 551.78 347.49 562.56 339.44 571.88 C 335.87 572.09 332.47 569.34 329.39 567.59 C 322.97 562.74 315.59 559.46 308.78 555.24 C 295.92 547.33 282.60 540.19 269.72 532.33 C 258.21 524.58 245.76 518.40 233.99 511.06 C 226.17 506.12 218.08 501.64 210.12 496.94 C 204.66 493.78 199.56 490.02 193.95 487.11 C 177.59 478.31 161.87 468.39 145.63 459.40 C 141.43 457.00 137.55 454.08 133.27 451.83 C 121.62 445.73 110.51 438.67 99.26 431.88 C 90.08 426.49 80.82 421.16 72.34 414.69 C 64.65 408.46 60.55 398.70 59.90 388.97 C 60.30 378.95 65.14 369.24 72.77 362.75 C 82.41 355.37 93.37 350.04 103.64 343.64 C 107.08 341.73 110.68 340.10 113.98 337.94 C 128.25 328.73 143.00 320.29 157.63 311.67 C 165.59 307.40 172.89 302.00 180.96 297.92 C 187.27 294.75 193.04 290.63 199.12 287.05 C 203.76 284.27 208.77 282.19 213.37 279.34 C 236.64 265.13 260.35 251.69 283.74 237.71 C 300.45 228.53 316.64 218.47 333.26 209.13 C 350.71 198.92 367.84 188.15 385.74 178.72 C 410.09 163.97 434.77 149.79 459.16 135.10 C 467.98 129.93 476.40 124.06 485.62 119.58 C 492.27 116.45 498.04 111.84 504.52 108.41 C 511.59 104.61 518.40 100.35 525.27 96.19 C 531.11 92.58 537.46 89.86 543.27 86.17 Z" />
<path fill="#d5e3de" opacity="1.00" d=" M 1089.65 345.74 C 1091.29 345.39 1092.93 345.96 1094.55 346.31 C 1095.25 348.89 1096.70 351.45 1096.26 354.21 C 1095.76 355.76 1095.77 357.42 1096.49 358.92 C 1098.67 365.91 1096.32 373.43 1092.23 379.24 C 1087.93 385.88 1081.76 391.03 1075.04 395.07 C 1064.39 401.84 1053.37 408.00 1042.65 414.66 C 1022.83 425.70 1003.40 437.41 983.71 448.70 C 977.10 452.36 970.93 456.76 964.23 460.26 C 956.21 464.43 948.84 469.70 940.86 473.93 C 927.99 480.87 915.74 488.85 903.05 496.10 C 894.39 500.60 886.35 506.19 877.72 510.75 C 870.23 514.82 862.74 518.94 855.69 523.74 C 850.45 527.37 844.39 529.56 839.13 533.15 C 833.47 536.99 827.25 539.88 821.50 543.57 C 814.05 548.14 806.80 553.08 799.05 557.14 C 793.67 559.97 788.64 563.42 783.38 566.46 C 775.45 571.21 767.07 575.21 759.43 580.44 C 752.33 585.18 744.67 588.99 737.38 593.41 C 730.12 597.86 722.69 602.02 715.36 606.34 C 704.80 611.96 695.04 618.94 684.48 624.57 C 673.49 631.33 662.20 637.59 651.01 644.01 C 640.56 650.72 629.55 656.49 619.05 663.12 C 607.03 670.71 593.98 676.70 580.26 680.46 C 578.62 680.88 576.92 681.00 575.24 681.04 C 567.36 681.13 559.43 680.47 551.61 681.67 C 550.54 681.79 549.48 681.78 548.43 681.61 C 545.58 681.08 542.67 680.98 539.80 681.32 C 533.63 681.33 527.70 678.98 521.84 677.25 C 504.34 670.33 488.02 660.80 471.99 651.01 C 459.80 642.88 446.95 635.81 433.98 629.02 C 430.22 626.84 426.74 624.21 423.00 622.01 C 417.34 618.53 411.16 616.04 405.50 612.60 C 400.45 609.68 395.87 606.00 390.60 603.50 C 388.66 602.61 386.89 601.40 385.45 599.83 C 391.40 596.24 397.68 593.25 403.60 589.61 C 412.15 584.49 420.56 579.14 429.36 574.44 C 437.79 570.00 445.58 564.45 453.95 559.90 C 470.70 550.90 486.51 540.29 503.20 531.19 C 521.20 520.05 539.40 509.26 557.83 498.86 C 568.35 493.28 577.90 486.06 588.44 480.51 C 594.42 477.37 599.90 473.22 606.29 470.89 C 621.29 467.68 635.86 462.78 650.67 458.83 C 667.52 454.21 684.35 449.49 701.36 445.49 C 712.83 441.72 724.83 440.03 736.36 436.49 C 747.42 433.22 758.82 431.27 769.90 428.07 C 788.94 422.88 808.08 418.06 827.24 413.33 C 846.81 408.20 866.23 402.50 885.99 398.11 C 903.42 393.57 920.73 388.51 938.28 384.46 C 948.24 382.63 957.83 379.29 967.63 376.79 C 982.01 373.02 996.35 368.97 1010.95 366.09 C 1037.25 359.56 1063.20 351.65 1089.65 345.74 Z" />
</g>
<g id="#aed1d7ff">
<path fill="#aed1d7" opacity="1.00" d=" M 593.82 68.62 C 599.21 67.52 604.83 67.50 610.23 68.62 C 604.78 69.36 599.27 69.33 593.82 68.62 Z" />
<path fill="#aed1d7" opacity="1.00" d=" M 804.36 170.03 C 821.91 181.31 840.61 190.62 858.27 201.71 C 873.31 211.23 889.09 219.48 904.41 228.52 C 911.62 232.57 918.34 237.42 925.68 241.24 C 942.43 250.81 958.93 260.81 975.70 270.35 C 986.33 276.80 997.51 282.31 1007.96 289.06 C 1020.52 297.39 1033.90 304.39 1046.81 312.15 C 1059.40 319.05 1071.97 326.08 1083.89 334.13 C 1088.50 337.15 1091.40 341.93 1094.55 346.31 C 1092.93 345.96 1091.29 345.39 1089.65 345.74 C 1063.20 351.65 1037.25 359.56 1010.95 366.09 C 996.35 368.97 982.01 373.02 967.63 376.79 C 957.83 379.29 948.24 382.63 938.28 384.46 C 920.73 388.51 903.42 393.57 885.99 398.11 C 866.23 402.50 846.81 408.20 827.24 413.33 C 808.08 418.06 788.94 422.88 769.90 428.07 C 758.82 431.27 747.42 433.22 736.36 436.49 C 724.83 440.03 712.83 441.72 701.36 445.49 C 684.35 449.49 667.52 454.21 650.67 458.83 C 635.86 462.78 621.29 467.68 606.29 470.89 C 607.08 466.22 610.11 462.47 612.58 458.58 C 622.77 442.25 633.09 425.98 644.42 410.42 C 645.95 408.09 647.06 405.53 648.32 403.06 C 660.38 383.74 673.62 365.18 686.15 346.15 C 695.52 332.19 704.61 318.04 714.21 304.23 C 720.50 296.03 725.65 287.04 731.42 278.48 C 736.95 270.27 741.33 261.31 747.42 253.47 C 757.07 240.90 764.84 227.05 774.23 214.30 C 779.32 207.52 783.10 199.89 787.96 192.96 C 791.49 188.33 794.45 183.32 796.99 178.09 C 798.53 174.67 801.37 172.18 804.36 170.03 Z" />
<path fill="#aed1d7" opacity="1.00" d=" M 1096.49 358.92 C 1095.77 357.42 1095.76 355.76 1096.26 354.21 C 1097.76 355.12 1097.94 357.87 1096.49 358.92 Z" />
<path fill="#aed1d7" opacity="1.00" d=" M 1143.16 385.24 C 1145.33 380.38 1146.65 375.14 1149.57 370.62 C 1150.03 372.89 1150.51 375.15 1150.87 377.45 C 1151.10 388.26 1146.58 398.37 1141.80 407.81 C 1133.26 421.28 1119.61 430.28 1106.01 438.02 C 1087.39 448.68 1068.91 459.58 1050.45 470.50 C 1041.08 476.19 1031.28 481.13 1022.04 487.02 C 1018.78 488.77 1015.83 491.38 1012.17 492.16 C 1005.33 491.69 1000.62 497.07 995.23 500.27 C 989.34 503.84 983.63 507.86 977.07 510.12 C 968.31 512.98 960.54 518.07 952.70 522.78 C 941.87 531.19 930.51 539.00 918.38 545.42 C 905.95 551.11 894.35 558.42 883.08 566.12 C 873.73 572.44 863.14 576.60 853.67 582.71 C 843.96 589.09 834.10 595.25 824.15 601.25 C 808.17 609.64 792.53 618.68 777.22 628.25 C 765.79 635.72 753.40 641.56 741.97 649.02 C 736.04 652.79 729.81 656.09 724.08 660.19 C 716.17 665.98 706.80 669.27 698.66 674.69 C 683.10 684.75 667.15 694.22 650.73 702.80 C 641.51 707.34 633.63 714.23 624.08 718.12 C 614.59 721.92 605.32 726.58 595.16 728.34 C 584.51 730.17 573.83 732.35 562.97 732.17 C 551.28 732.60 539.65 731.15 528.01 730.26 C 526.08 730.19 524.18 730.63 522.29 730.92 C 510.50 729.48 498.93 726.01 488.29 720.73 C 482.25 717.78 476.05 715.13 470.19 711.83 C 446.51 697.82 422.63 684.12 399.04 669.95 C 390.79 665.28 382.52 660.63 374.58 655.44 C 355.62 644.47 336.77 633.30 317.93 622.12 C 299.95 611.37 281.70 601.09 263.81 590.19 C 247.97 580.64 231.73 571.76 216.06 561.93 C 194.45 549.44 172.79 537.01 151.42 524.10 C 114.27 502.57 77.27 480.75 40.56 458.46 C 33.56 453.99 26.67 449.06 21.37 442.59 C 14.62 433.48 8.99 422.99 8.00 411.51 C 8.44 409.27 8.93 407.04 9.38 404.81 C 14.13 413.66 18.71 422.88 26.24 429.76 C 35.13 439.55 47.59 444.62 58.70 451.30 C 92.57 471.44 126.43 491.60 160.48 511.44 C 193.83 531.15 227.03 551.11 260.61 570.42 C 278.26 579.72 294.67 591.14 312.02 600.96 C 326.40 609.16 340.93 617.15 354.86 626.12 C 361.99 630.78 369.55 634.72 376.86 639.09 C 395.03 649.09 412.34 660.58 430.59 670.44 C 438.33 674.52 445.38 679.75 453.02 684.00 C 461.34 688.61 469.08 694.22 477.63 698.41 C 485.86 702.68 494.85 705.10 503.45 708.47 C 511.52 711.61 520.19 712.48 528.59 714.32 C 541.88 717.23 555.58 716.13 569.07 715.87 C 577.16 715.58 584.93 713.11 592.89 711.85 C 603.21 710.21 613.02 706.43 622.71 702.65 C 639.33 695.38 654.26 684.95 669.98 676.00 C 694.83 662.46 718.39 646.69 743.41 633.45 C 759.31 624.07 774.64 613.68 790.98 605.04 C 801.38 599.65 811.00 592.91 821.20 587.18 C 829.50 582.58 837.35 577.24 845.66 572.67 C 859.74 564.89 873.47 556.51 887.31 548.31 C 899.57 540.75 912.44 534.26 924.66 526.63 C 934.18 521.30 943.07 514.93 952.68 509.77 C 967.11 502.10 980.79 493.12 994.92 484.91 C 1004.66 478.89 1014.97 473.82 1024.53 467.50 C 1031.66 462.80 1039.38 459.13 1046.67 454.68 C 1055.58 449.21 1064.90 444.40 1073.66 438.66 C 1089.59 428.35 1106.89 420.28 1122.49 409.44 C 1130.58 402.59 1139.04 395.28 1143.16 385.24 Z" />
<path fill="#aed1d7" opacity="1.00" d=" M 539.80 681.32 C 542.67 680.98 545.58 681.08 548.43 681.61 C 545.56 682.16 542.59 682.27 539.80 681.32 Z" />
<path fill="#aed1d7" opacity="1.00" d=" M 551.61 681.67 C 559.43 680.47 567.36 681.13 575.24 681.04 C 574.45 682.60 572.38 681.85 571.01 682.10 C 564.54 681.97 558.05 682.40 551.61 681.67 Z" />
</g>
<g id="#59bec7ff">
<path fill="#59bec7" opacity="1.00" d=" M 514.17 433.08 C 558.74 422.43 603.62 413.15 648.32 403.06 C 647.06 405.53 645.95 408.09 644.42 410.42 C 633.09 425.98 622.77 442.25 612.58 458.58 C 610.11 462.47 607.08 466.22 606.29 470.89 C 599.90 473.22 594.42 477.37 588.44 480.51 C 577.90 486.06 568.35 493.28 557.83 498.86 C 539.40 509.26 521.20 520.05 503.20 531.19 C 486.51 540.29 470.70 550.90 453.95 559.90 C 445.58 564.45 437.79 570.00 429.36 574.44 C 420.56 579.14 412.15 584.49 403.60 589.61 C 397.68 593.25 391.40 596.24 385.45 599.83 C 374.23 593.26 362.75 587.12 351.67 580.32 C 347.47 577.68 343.02 575.36 339.44 571.88 C 347.49 562.56 353.58 551.78 361.03 542.00 C 371.38 528.19 380.08 513.23 390.39 499.39 C 397.38 489.78 403.77 479.63 412.13 471.11 C 422.11 460.51 435.38 453.55 449.07 448.98 C 470.54 442.81 492.50 438.51 514.17 433.08 Z" />
<path fill="#59bec7" opacity="1.00" d=" M 995.23 500.27 C 1000.62 497.07 1005.33 491.69 1012.17 492.16 L 1011.52 492.64 C 1000.45 500.15 988.69 506.56 977.08 513.18 C 948.04 530.53 918.91 547.72 889.60 564.62 C 875.11 573.57 860.08 581.59 845.71 590.73 C 836.47 596.63 826.97 602.08 817.33 607.29 C 800.57 616.74 784.12 626.73 767.58 636.56 C 755.46 643.85 743.05 650.63 730.95 657.96 C 704.31 673.70 677.99 690.01 650.84 704.87 C 636.73 713.22 622.35 721.39 606.79 726.75 C 593.88 730.76 580.38 732.16 567.02 733.78 C 552.09 734.41 536.95 734.03 522.29 730.92 C 524.18 730.63 526.08 730.19 528.01 730.26 C 539.65 731.15 551.28 732.60 562.97 732.17 C 573.83 732.35 584.51 730.17 595.16 728.34 C 605.32 726.58 614.59 721.92 624.08 718.12 C 633.63 714.23 641.51 707.34 650.73 702.80 C 667.15 694.22 683.10 684.75 698.66 674.69 C 706.80 669.27 716.17 665.98 724.08 660.19 C 729.81 656.09 736.04 652.79 741.97 649.02 C 753.40 641.56 765.79 635.72 777.22 628.25 C 792.53 618.68 808.17 609.64 824.15 601.25 C 834.10 595.25 843.96 589.09 853.67 582.71 C 863.14 576.60 873.73 572.44 883.08 566.12 C 894.35 558.42 905.95 551.11 918.38 545.42 C 930.51 539.00 941.87 531.19 952.70 522.78 C 960.54 518.07 968.31 512.98 977.07 510.12 C 983.63 507.86 989.34 503.84 995.23 500.27 Z" />
<path fill="#59bec7" opacity="1.00" d=" M 1010.55 748.49 C 1017.85 744.54 1024.61 739.63 1032.26 736.33 C 1039.08 741.14 1046.53 744.98 1053.70 749.25 C 1063.14 754.77 1072.51 760.42 1081.78 766.23 C 1094.06 772.76 1105.69 780.41 1117.79 787.26 C 1124.97 792.59 1133.04 796.52 1140.46 801.50 C 1148.38 807.12 1155.92 813.97 1159.87 823.05 C 1163.96 830.74 1166.49 839.24 1167.02 847.95 C 1167.49 858.85 1167.62 870.12 1163.47 880.42 C 1156.86 897.34 1142.99 910.65 1127.17 919.14 C 1104.80 931.62 1082.98 945.07 1060.67 957.64 C 1051.58 962.34 1043.25 968.32 1034.29 973.25 C 1024.53 978.76 1015.20 985.01 1005.32 990.31 C 983.25 1003.20 961.47 1016.62 939.19 1029.16 C 920.67 1040.47 901.79 1051.15 883.06 1062.12 C 868.26 1070.63 853.75 1079.65 838.68 1087.70 C 828.59 1093.10 819.34 1099.88 809.18 1105.14 C 794.43 1114.67 778.64 1122.42 763.84 1131.87 C 745.03 1143.13 725.98 1153.99 707.04 1165.02 C 700.26 1168.86 693.97 1173.50 687.07 1177.11 C 678.23 1181.90 669.55 1186.98 660.65 1191.66 C 630.56 1205.84 596.43 1211.14 563.41 1207.34 C 545.91 1204.16 528.30 1200.36 512.05 1192.90 C 504.86 1189.69 498.39 1185.13 491.38 1181.55 C 457.64 1161.62 423.55 1142.26 389.94 1122.11 C 354.83 1102.03 320.31 1080.95 285.34 1060.62 C 253.77 1042.22 222.44 1023.39 190.71 1005.24 C 163.12 988.35 134.80 972.70 107.16 955.88 C 101.88 952.31 96.10 949.58 90.58 946.42 C 83.35 941.96 76.00 937.70 68.80 933.21 C 61.00 928.23 53.08 923.11 47.14 915.89 C 40.72 909.47 36.18 901.37 33.39 892.78 C 30.98 883.43 31.05 873.65 31.49 864.08 C 32.65 853.67 36.18 843.56 41.50 834.55 C 43.71 830.86 47.09 828.12 49.96 824.98 C 53.83 820.81 57.99 816.79 63.05 814.08 C 76.80 805.28 91.44 797.98 105.19 789.20 C 114.07 783.63 123.37 778.77 132.32 773.31 C 140.97 767.82 150.20 763.28 158.53 757.28 C 166.37 761.42 174.22 765.57 181.83 770.16 C 197.33 779.77 213.27 788.64 228.83 798.14 C 240.90 804.54 252.30 812.09 264.22 818.76 C 280.05 828.77 296.49 837.72 312.44 847.54 C 327.38 856.70 342.67 865.26 357.72 874.23 C 371.68 882.22 385.40 890.65 399.45 898.49 C 416.73 908.49 433.77 918.89 450.97 929.03 C 463.02 935.92 474.97 942.97 486.79 950.24 C 498.32 957.63 511.02 963.07 524.21 966.74 C 555.91 976.21 590.21 976.56 622.17 968.11 C 640.78 963.89 658.24 955.56 674.20 945.24 C 691.83 934.77 709.80 924.90 727.41 914.41 C 743.43 904.69 759.80 895.56 775.81 885.81 C 790.43 877.44 804.58 868.23 819.54 860.47 C 828.10 854.92 836.99 849.93 845.79 844.78 C 875.93 826.81 906.71 809.93 936.64 791.60 C 946.42 786.14 956.22 780.69 965.69 774.68 C 971.23 771.11 977.24 768.36 982.83 764.87 C 991.96 759.22 1001.23 753.80 1010.55 748.49 Z" />
</g>
<g id="#10807aff">
<path fill="#10807a" opacity="1.00" d=" M 977.08 513.18 C 988.69 506.56 1000.45 500.15 1011.52 492.64 C 1027.44 505.85 1046.83 513.70 1064.01 524.99 C 1068.13 527.64 1072.64 529.60 1076.77 532.25 C 1092.64 542.26 1109.19 551.13 1125.30 560.75 C 1132.29 565.20 1139.22 569.99 1144.82 576.16 C 1153.85 586.60 1159.88 600.03 1159.98 613.97 C 1160.34 623.62 1160.73 633.51 1157.78 642.84 C 1152.78 659.99 1139.31 673.50 1123.94 681.91 C 1118.55 684.74 1113.36 687.90 1108.30 691.29 C 1099.00 697.18 1089.15 702.10 1079.70 707.73 C 1069.41 714.16 1058.80 720.05 1048.57 726.55 C 1043.29 730.07 1037.70 733.09 1032.26 736.33 C 1024.61 739.63 1017.85 744.54 1010.55 748.49 C 1001.23 753.80 991.96 759.22 982.83 764.87 C 977.24 768.36 971.23 771.11 965.69 774.68 C 956.22 780.69 946.42 786.14 936.64 791.60 C 906.71 809.93 875.93 826.81 845.79 844.78 C 836.99 849.93 828.10 854.92 819.54 860.47 C 804.58 868.23 790.43 877.44 775.81 885.81 C 759.80 895.56 743.43 904.69 727.41 914.41 C 709.80 924.90 691.83 934.77 674.20 945.24 C 658.24 955.56 640.78 963.89 622.17 968.11 C 590.21 976.56 555.91 976.21 524.21 966.74 C 511.02 963.07 498.32 957.63 486.79 950.24 C 474.97 942.97 463.02 935.92 450.97 929.03 C 433.77 918.89 416.73 908.49 399.45 898.49 C 385.40 890.65 371.68 882.22 357.72 874.23 C 342.67 865.26 327.38 856.70 312.44 847.54 C 296.49 837.72 280.05 828.77 264.22 818.76 C 252.30 812.09 240.90 804.54 228.83 798.14 C 213.27 788.64 197.33 779.77 181.83 770.16 C 174.22 765.57 166.37 761.42 158.53 757.28 C 155.94 755.62 153.62 753.57 150.97 752.01 C 136.57 743.89 122.66 734.93 108.31 726.71 C 91.14 716.59 73.85 706.67 56.95 696.10 C 49.75 691.10 42.15 686.30 36.70 679.30 C 32.48 673.93 28.19 668.23 26.77 661.40 C 23.58 647.09 23.24 631.99 26.89 617.73 C 29.31 608.67 34.32 600.45 40.50 593.47 C 45.02 588.86 50.64 585.53 56.06 582.10 C 72.02 572.78 87.60 562.82 103.71 553.76 C 117.65 545.74 131.63 537.78 145.34 529.37 C 147.64 527.95 149.67 526.15 151.42 524.10 C 172.79 537.01 194.45 549.44 216.06 561.93 C 231.73 571.76 247.97 580.64 263.81 590.19 C 281.70 601.09 299.95 611.37 317.93 622.12 C 336.77 633.30 355.62 644.47 374.58 655.44 C 382.52 660.63 390.79 665.28 399.04 669.95 C 422.63 684.12 446.51 697.82 470.19 711.83 C 476.05 715.13 482.25 717.78 488.29 720.73 C 498.93 726.01 510.50 729.48 522.29 730.92 C 536.95 734.03 552.09 734.41 567.02 733.78 C 580.38 732.16 593.88 730.76 606.79 726.75 C 622.35 721.39 636.73 713.22 650.84 704.87 C 677.99 690.01 704.31 673.70 730.95 657.96 C 743.05 650.63 755.46 643.85 767.58 636.56 C 784.12 626.73 800.57 616.74 817.33 607.29 C 826.97 602.08 836.47 596.63 845.71 590.73 C 860.08 581.59 875.11 573.57 889.60 564.62 C 918.91 547.72 948.04 530.53 977.08 513.18 Z" />
</g>
</svg>
