<?xml version="1.0" encoding="UTF-8" ?>
<!DOCTYPE svg PUBLIC "-//W3C//DTD SVG 1.1//EN" "http://www.w3.org/Graphics/SVG/1.1/DTD/svg11.dtd">
<svg width="1176pt" height="1238pt" viewBox="0 0 1176 1238" version="1.1" xmlns="http://www.w3.org/2000/svg">
<g id="#010101ff">
</g>
<g id="#fdfdfdff">
<path fill="#fdfdfd" opacity="1.00" d=" M 577.02 31.31 C 598.41 28.63 620.45 28.93 641.33 34.72 C 650.11 37.26 658.85 40.02 667.24 43.67 C 675.33 46.83 682.60 51.67 690.23 55.76 C 700.75 61.35 710.57 68.17 721.08 73.79 C 732.04 79.65 742.12 87.02 753.25 92.59 C 764.20 99.08 775.14 105.61 786.37 111.62 C 798.58 119.58 811.66 126.10 823.84 134.11 C 834.92 139.86 845.66 146.23 856.23 152.87 C 871.01 161.31 885.60 170.09 900.21 178.82 C 920.49 190.42 940.83 201.92 960.63 214.36 C 968.00 219.21 976.26 222.56 983.54 227.57 C 1000.73 237.17 1017.09 248.14 1034.29 257.72 C 1038.14 259.75 1041.54 262.50 1045.36 264.57 C 1055.08 269.73 1064.40 275.60 1073.92 281.11 C 1079.63 284.37 1084.93 288.34 1091.01 290.93 C 1100.39 296.50 1110.12 301.58 1118.82 308.23 C 1125.66 313.20 1133.26 317.73 1137.89 325.04 C 1143.76 332.55 1147.05 341.73 1148.90 350.98 C 1150.23 358.15 1148.64 365.35 1147.25 372.38 C 1146.48 375.60 1144.58 378.37 1143.19 381.34 C 1139.03 390.71 1131.47 398.08 1123.45 404.22 C 1123.83 405.13 1124.22 406.04 1124.62 406.96 C 1124.13 406.18 1123.65 405.40 1123.19 404.63 C 1114.72 410.50 1105.55 415.24 1096.98 420.95 C 1091.43 424.47 1085.45 427.25 1080.02 430.95 C 1075.79 433.95 1070.96 435.93 1066.56 438.67 C 1057.86 443.89 1049.04 448.92 1040.54 454.46 C 1034.30 457.42 1028.66 461.44 1022.51 464.56 C 1018.58 466.51 1015.16 469.32 1011.22 471.25 C 998.24 477.85 986.35 486.35 973.62 493.38 C 972.81 492.88 972.01 492.39 971.23 491.91 C 971.67 492.44 972.54 493.51 972.97 494.04 C 962.13 499.69 951.98 506.60 941.10 512.20 C 936.76 514.87 932.72 518.09 928.02 520.13 C 924.72 521.56 921.93 523.88 918.82 525.63 C 901.18 536.02 883.35 546.14 865.90 556.78 C 860.69 558.99 856.32 562.65 851.34 565.25 C 837.68 572.37 825.11 581.41 811.47 588.54 C 802.97 594.14 794.11 599.19 785.29 604.26 C 767.65 614.56 750.06 624.98 732.43 635.30 C 724.85 639.24 717.75 644.05 710.40 648.41 C 704.40 652.22 697.61 654.76 692.12 659.36 C 692.53 659.79 693.35 660.64 693.76 661.06 C 692.93 660.45 692.12 659.85 691.31 659.25 C 677.61 666.72 664.50 675.16 650.98 682.93 C 642.85 688.34 634.32 693.12 625.64 697.58 C 623.31 698.82 620.62 699.07 618.24 700.17 C 608.73 704.33 598.83 707.69 588.56 709.27 C 571.39 713.54 553.50 713.28 535.97 712.07 C 529.64 711.23 523.22 710.72 517.09 708.82 C 500.73 705.82 485.45 698.82 470.80 691.18 C 461.87 685.69 452.36 681.19 443.65 675.35 C 442.84 675.90 442.04 676.47 441.24 677.05 C 441.66 676.60 442.49 675.71 442.90 675.27 C 430.65 666.92 417.43 660.16 404.85 652.34 C 380.32 637.76 355.41 623.93 331.21 608.79 C 316.95 600.35 302.56 592.13 288.18 583.88 C 280.17 579.73 272.73 574.59 264.89 570.14 C 256.67 565.39 248.34 560.79 240.49 555.43 C 233.17 551.95 226.76 546.88 219.36 543.54 C 201.23 532.26 182.58 521.90 164.45 510.63 C 149.20 502.37 134.42 493.30 119.37 484.70 C 109.59 478.27 99.37 472.54 89.06 467.05 C 87.60 467.43 86.12 467.71 84.61 467.76 C 85.81 467.29 87.01 466.84 88.22 466.41 C 74.29 458.61 60.77 450.11 47.05 441.95 C 36.10 435.36 24.25 428.81 17.26 417.69 C 8.69 405.64 3.96 390.12 7.48 375.46 C 8.65 368.60 11.21 361.91 15.22 356.22 C 18.23 353.19 19.97 349.06 23.47 346.52 C 31.26 339.75 39.74 333.75 48.78 328.75 C 60.27 321.46 71.94 314.47 83.92 308.01 C 94.67 301.29 105.88 295.34 116.66 288.68 C 127.93 281.42 140.07 275.63 151.37 268.42 C 166.94 260.21 181.64 250.46 197.09 242.03 C 204.49 236.97 212.61 233.08 219.98 227.99 C 224.96 225.38 229.75 222.45 234.55 219.54 C 240.80 216.29 246.97 212.82 252.77 208.82 C 273.57 196.04 295.09 184.45 315.88 171.64 C 330.10 164.15 343.55 155.33 357.69 147.70 C 369.41 140.30 381.64 133.76 393.32 126.31 C 405.21 120.13 416.61 113.05 428.08 106.14 C 442.11 98.68 455.00 89.21 469.34 82.33 C 475.85 77.21 483.51 73.87 490.45 69.41 C 505.21 60.32 520.33 51.80 535.60 43.59 C 548.84 37.85 562.77 33.65 577.02 31.31 M 553.75 75.75 C 507.97 101.30 463.55 129.18 417.93 155.04 C 402.08 164.96 385.72 174.05 369.47 183.29 C 364.79 186.04 359.69 188.14 355.47 191.62 C 349.06 194.52 343.50 198.89 337.44 202.43 C 315.38 215.82 292.81 228.37 270.61 241.53 C 258.48 249.21 245.44 255.39 233.53 263.45 C 226.57 267.52 219.10 270.72 212.53 275.45 C 198.64 283.12 185.29 291.69 171.35 299.28 C 167.66 301.57 164.11 304.07 160.18 305.92 C 156.13 309.21 151.13 310.93 146.86 313.88 C 139.67 317.49 133.15 322.24 126.09 326.12 C 116.73 331.36 107.76 337.23 98.31 342.30 C 85.65 349.82 71.37 356.36 63.03 369.08 C 56.55 380.45 58.04 395.62 66.20 405.78 C 70.06 410.75 75.75 413.70 81.01 416.93 C 94.51 425.64 108.71 433.19 122.31 441.74 C 129.06 445.53 135.75 449.46 142.19 453.77 C 151.00 459.00 159.96 463.95 168.65 469.36 C 186.69 479.09 203.91 490.22 221.77 500.26 C 229.93 505.63 238.86 509.67 247.02 515.01 C 260.03 522.62 272.98 530.36 285.94 538.07 C 297.28 544.26 307.95 551.64 319.44 557.56 C 341.09 570.65 363.00 583.36 384.86 596.12 C 397.03 603.75 409.95 610.09 421.95 618.02 C 439.67 628.26 457.40 638.47 474.85 649.18 C 486.07 654.70 496.09 662.34 507.44 667.61 C 512.70 669.74 517.77 672.50 523.38 673.62 C 531.82 675.68 540.28 677.93 549.02 678.13 C 568.24 679.63 587.29 674.45 604.71 666.71 C 615.78 661.43 626.00 654.62 636.66 648.60 C 662.83 633.17 688.84 617.46 715.01 602.05 C 723.07 597.95 730.48 592.75 738.38 588.38 C 746.12 584.11 753.49 579.21 761.22 574.91 C 761.33 574.22 761.56 572.83 761.67 572.13 C 761.73 572.65 761.84 573.69 761.89 574.21 C 792.86 556.94 823.14 538.48 853.90 520.84 C 865.80 513.25 878.02 506.22 890.33 499.34 C 899.80 493.37 909.63 488.00 919.16 482.13 C 940.34 469.06 962.28 457.31 983.55 444.37 C 1004.06 432.69 1024.01 420.05 1044.73 408.74 C 1052.73 404.08 1060.43 398.90 1068.56 394.48 C 1077.67 390.60 1084.78 383.43 1090.73 375.71 C 1096.61 366.82 1098.25 354.99 1093.97 345.09 C 1090.90 338.59 1086.30 332.71 1080.21 328.80 C 1070.65 322.65 1061.37 315.98 1051.07 311.10 C 1041.84 305.48 1032.47 300.12 1023.09 294.76 C 1014.45 290.32 1006.65 284.50 998.13 279.86 C 973.20 265.15 948.01 250.85 923.12 236.04 C 915.79 232.04 908.97 227.23 901.59 223.34 C 896.44 219.58 890.35 217.47 885.14 213.81 C 870.85 205.47 856.32 197.56 842.40 188.60 C 835.62 184.04 827.91 181.05 821.15 176.49 C 819.30 175.54 821.30 173.78 821.73 172.62 C 820.72 173.31 819.92 174.23 819.18 175.17 C 793.36 160.25 768.04 144.53 742.06 129.90 C 727.99 122.15 714.64 113.18 700.57 105.46 C 693.49 100.75 685.79 97.04 678.74 92.27 C 668.77 86.54 658.59 81.19 648.65 75.40 C 639.44 70.94 629.59 67.87 619.62 65.61 C 597.28 61.46 574.12 66.30 553.75 75.75 Z" />
<path fill="#fdfdfd" opacity="1.00" d=" M 1042.36 508.32 C 1043.48 507.52 1044.59 508.95 1045.60 509.38 C 1055.32 516.13 1065.58 522.07 1075.75 528.13 C 1085.02 534.06 1094.78 539.16 1104.16 544.90 C 1109.85 548.18 1115.28 551.92 1121.19 554.83 C 1129.44 559.58 1137.08 565.41 1143.82 572.14 C 1147.99 576.19 1150.79 581.30 1153.80 586.21 C 1156.75 591.02 1157.27 596.77 1159.01 602.04 C 1161.96 621.56 1158.43 643.04 1145.60 658.58 C 1139.72 665.81 1131.90 671.06 1124.17 676.11 C 1114.49 681.74 1105.27 688.14 1095.36 693.34 C 1088.39 697.87 1080.93 701.54 1073.90 705.96 C 1064.18 712.00 1053.88 717.04 1044.38 723.42 C 1039.36 726.25 1034.50 729.33 1029.49 732.18 C 1033.94 733.93 1037.67 737.03 1042.05 738.95 C 1049.83 743.99 1058.29 747.86 1066.04 752.96 C 1075.82 758.86 1085.69 764.61 1095.49 770.48 C 1107.65 778.45 1120.67 785.01 1132.69 793.20 C 1139.96 796.90 1146.04 802.53 1151.40 808.61 C 1154.58 811.62 1157.16 815.20 1158.88 819.24 C 1164.02 828.28 1167.56 838.51 1167.39 849.01 C 1167.27 853.75 1167.77 858.63 1166.29 863.21 C 1165.04 867.05 1164.97 871.31 1162.81 874.82 C 1160.32 878.79 1158.92 883.36 1156.13 887.16 C 1148.87 897.71 1139.27 906.79 1128.08 913.05 C 1117.77 919.95 1106.52 925.25 1096.20 932.14 C 1080.40 941.40 1064.65 950.80 1048.60 959.67 C 1045.53 962.05 1042.13 963.91 1038.70 965.69 C 1032.63 968.86 1027.08 972.93 1020.83 975.75 C 1014.06 981.37 1005.65 984.52 998.26 989.21 C 994.66 992.15 990.09 993.53 986.58 996.58 C 976.05 1002.19 966.16 1008.94 955.61 1014.55 C 932.30 1027.85 909.61 1042.27 885.98 1054.97 C 876.96 1061.18 867.21 1066.19 857.78 1071.71 C 851.49 1076.38 844.24 1079.57 837.44 1083.45 C 833.97 1085.65 830.55 1087.91 826.92 1089.84 C 822.12 1092.29 817.90 1095.72 813.01 1098.00 C 805.97 1102.35 798.99 1106.79 791.68 1110.68 C 781.75 1115.90 772.40 1122.10 762.69 1127.70 C 755.09 1131.62 748.23 1136.83 740.52 1140.56 C 735.38 1143.82 730.06 1146.79 724.70 1149.68 C 718.02 1154.15 710.87 1157.85 703.94 1161.91 C 684.96 1172.38 667.27 1185.51 646.68 1192.81 C 635.91 1196.00 625.26 1199.76 614.08 1201.28 C 600.93 1204.42 587.35 1203.70 573.95 1203.69 C 566.32 1203.81 558.88 1201.87 551.37 1200.83 C 543.69 1199.54 536.19 1197.49 528.80 1195.05 C 518.33 1192.73 508.53 1188.05 499.30 1182.70 C 494.79 1178.92 489.07 1177.16 484.29 1173.78 C 477.98 1170.15 471.82 1166.26 465.66 1162.38 C 437.53 1146.66 409.93 1130.03 382.13 1113.74 C 372.09 1108.32 362.48 1102.19 352.60 1096.51 C 342.81 1091.49 333.81 1085.10 324.20 1079.76 C 319.20 1076.64 313.89 1074.07 308.99 1070.79 C 309.44 1070.32 310.35 1069.39 310.80 1068.93 C 309.94 1069.50 309.09 1070.08 308.25 1070.68 C 306.75 1069.53 305.27 1068.39 303.70 1067.38 C 292.96 1061.52 282.35 1055.40 271.86 1049.10 C 262.35 1044.11 253.42 1038.13 244.03 1032.93 C 233.42 1026.94 223.17 1020.32 212.41 1014.62 C 200.13 1006.72 187.06 1000.14 174.78 992.22 C 167.13 987.42 159.03 983.40 151.23 978.86 C 141.87 972.66 131.74 967.75 122.30 961.69 C 115.15 957.02 107.52 953.19 100.20 948.83 C 92.50 944.65 85.37 939.51 77.62 935.43 C 73.10 933.06 68.77 930.36 64.58 927.46 C 58.09 923.47 51.80 919.04 46.60 913.44 C 42.32 908.12 37.71 902.81 35.58 896.20 C 30.39 885.33 28.25 872.92 29.79 860.97 C 30.22 852.74 32.40 844.58 36.26 837.29 C 38.45 830.77 43.69 826.11 48.10 821.10 C 52.59 817.20 56.65 812.57 62.23 810.18 C 85.87 796.16 109.57 782.18 133.30 768.25 C 141.45 762.83 150.83 759.37 158.46 753.16 C 143.97 743.95 129.00 735.51 114.13 726.94 C 98.55 717.83 82.90 708.84 67.47 699.47 C 58.95 694.51 49.80 690.30 42.66 683.34 C 29.12 671.32 21.37 653.11 22.17 634.99 C 21.72 621.01 25.82 606.71 34.84 595.87 C 41.89 586.44 51.86 579.83 61.72 573.68 C 68.55 569.90 75.01 565.51 81.94 561.92 C 89.56 556.23 98.47 552.67 106.30 547.30 C 111.30 544.46 115.99 541.09 121.04 538.34 C 126.80 540.90 131.97 544.59 137.57 547.47 C 146.05 553.28 155.46 557.59 163.91 563.43 C 146.93 573.58 129.90 583.64 113.01 593.97 C 103.81 599.72 93.95 604.58 85.65 611.65 C 81.55 615.93 77.31 620.49 75.40 626.24 C 72.25 635.50 74.66 646.50 81.51 653.50 C 87.12 660.50 95.47 664.37 102.94 669.01 C 114.29 676.18 126.04 682.67 137.64 689.43 C 149.26 696.92 161.64 703.16 173.19 710.78 C 183.38 716.57 193.56 722.39 203.51 728.59 C 216.56 735.69 229.07 743.72 242.07 750.90 C 254.95 759.18 268.63 766.14 281.47 774.48 C 294.59 781.59 307.18 789.63 320.13 797.02 C 321.21 797.50 321.75 798.35 321.76 799.56 C 321.98 799.22 322.42 798.54 322.64 798.20 C 331.04 804.10 339.94 809.23 348.96 814.11 C 354.22 816.63 358.52 820.70 363.85 823.11 C 373.82 829.26 384.39 834.36 394.18 840.79 C 399.67 843.92 405.27 846.88 410.43 850.56 C 421.35 857.48 432.98 863.19 443.89 870.13 C 454.49 876.02 464.85 882.32 475.07 888.83 C 482.89 892.90 490.40 897.53 497.82 902.30 C 509.32 908.93 520.81 915.65 532.97 921.04 C 544.36 924.54 556.01 927.79 568.01 928.04 C 578.59 928.36 589.29 928.43 599.75 926.61 C 607.96 924.54 616.33 922.69 623.98 918.93 C 645.37 908.21 665.57 895.32 686.19 883.21 C 691.39 880.01 696.35 876.40 701.87 873.75 C 724.97 860.69 747.74 847.05 770.58 833.53 C 774.93 830.82 779.26 828.03 783.93 825.87 C 799.88 816.56 815.86 807.32 831.58 797.61 C 843.68 790.74 855.35 783.16 867.64 776.61 C 875.10 772.52 882.40 768.15 889.56 763.57 C 907.39 753.47 924.84 742.68 942.59 732.44 C 952.17 727.22 961.39 721.38 970.81 715.88 C 980.26 710.81 989.19 704.85 998.47 699.48 C 1013.32 690.61 1028.26 681.91 1043.13 673.09 C 1053.75 666.19 1065.00 660.35 1075.81 653.77 C 1086.59 646.93 1099.15 641.20 1105.70 629.61 C 1108.46 623.53 1108.95 616.57 1108.16 610.00 C 1105.80 600.10 1098.42 592.12 1089.71 587.21 C 1079.14 581.75 1069.48 574.74 1059.11 568.93 C 1052.13 564.89 1044.92 561.26 1038.18 556.83 C 1028.17 550.77 1017.87 545.18 1008.08 538.79 C 1004.87 536.85 1001.48 535.25 998.25 533.38 C 1007.30 528.61 1016.10 523.42 1025.15 518.64 C 1025.64 519.43 1026.14 520.23 1026.67 521.02 C 1026.20 520.08 1025.73 519.15 1025.27 518.22 C 1031.29 515.49 1036.45 511.24 1042.36 508.32 Z" />
</g>
</svg>
